
<svg width="200" height="200" viewBox="0 0 24 24" fill="none" xmlns="http://www.w3.org/2000/svg">

<rect width="100%" height="100%" fill="white"/>


<g stroke="black" stroke-width="0.5">
    <line x1="4" y1="2" x2="4" y2="22"/>
    <line x1="8" y1="2" x2="8" y2="22"/>
    <line x1="12" y1="2" x2="12" y2="22"/>
    <line x1="16" y1="2" x2="16" y2="22"/>
    <line x1="20" y1="2" x2="20" y2="22"/>
</g>


<g stroke="black" stroke-width="0.5">
    <line x1="2" y1="4" x2="22" y2="4"/>
    <line x1="2" y1="8" x2="22" y2="8"/>
    <line x1="2" y1="12" x2="22" y2="12"/>
    <line x1="2" y1="16" x2="22" y2="16"/>
    <line x1="2" y1="20" x2="22" y2="20"/>
</g>


<g stroke="red" stroke-width="2" fill="none">

    <path d="M2 20 L6 13 L8 18 L11 19 L13 8 L15 16 L18 16 L20 7" stroke-linecap="round" stroke-linejoin="round"/>
    
    <polygon points="18,10 19,11 17,11" fill="red" transform="translate(2,-5)"/>
</g>

<g fill="black" transform="translate(-1, 9)">

    <circle cx="4" cy="2" r="2"/>
    <rect x="2" y="0" width="4" height="4"/>

    <circle cx="10" cy="2" r="2"/>
    <rect x="8" y="0" width="4" height="4"/>

    <rect x="6" y="1" width="4" height="2"/>

    <text x="4" y="2.4" font-size="1" text-anchor="middle" fill="white">10lbs</text>
    <text x="10" y="2.4" font-size="1" text-anchor="middle" fill="white">10lbs</text>
</g>


<g fill="black" transform="translate(7, 1)">

    <circle cx="4" cy="2" r="2"/>
    <rect x="2" y="0" width="4" height="4"/>

    <circle cx="10" cy="2" r="2"/>
    <rect x="8" y="0" width="4" height="4"/>

    <rect x="6" y="1" width="4" height="2"/>

    <text x="4" y="2.4" font-size="1" text-anchor="middle" fill="white">20lbs</text>
    <text x="10" y="2.4" font-size="1" text-anchor="middle" fill="white">20lbs</text>
</g>
</svg>

